<?xml version="1.0" encoding="UTF-8"?>
<svg width="800px" height="800px" viewBox="0 0 800 800" version="1.1" xmlns="http://www.w3.org/2000/svg" xmlns:xlink="http://www.w3.org/1999/xlink">
    <title>Artboard</title>
    <defs>
        <linearGradient x1="4.33680869e-16%" y1="-1.32272665e-15%" x2="100%" y2="100.639648%" id="linearGradient-1">
            <stop stop-color="#EEC0C6" offset="0%"></stop>
            <stop stop-color="#7EE8FA" offset="100%"></stop>
        </linearGradient>
    </defs>
    <g id="Artboard" stroke="none" stroke-width="1" fill="none" fill-rule="evenodd">
        <rect id="Rectangle" fill="url(#linearGradient-1)" x="0" y="0" width="800" height="800" rx="100"></rect>
        <g id="2" transform="translate(145.000000, 53.000000)" fill="#444444" fill-rule="nonzero">
            <path d="M529.044674,219.774648 C529.044674,237.855399 527.175258,255.312676 523.436426,272.146479 C519.697595,288.980282 513.310424,305.346479 504.274914,321.24507 C495.239404,337.143662 483.399771,352.886385 468.756014,368.473239 C454.112257,384.060094 436.197022,399.646948 415.010309,415.233803 L284.151203,514.366197 L518.762887,514.366197 C525.617411,514.366197 531.537228,516.860094 536.522337,521.847887 C541.507446,526.835681 544,532.758685 544,539.616901 L544,638.749296 C544,645.607512 541.507446,651.530516 536.522337,656.51831 C531.537228,661.506103 525.617411,664 518.762887,664 L25.2371134,664 C18.3825888,664 12.4627721,661.506103 7.47766323,656.51831 C2.49255441,651.530516 0,645.607512 0,638.749296 L0,558.321127 C0,548.34554 2.02520046,538.369953 6.07560137,528.394366 C10.1260023,518.418779 17.1363116,510.001878 27.1065292,503.143662 L306.584192,303.008451 C328.394044,286.798122 342.103093,271.99061 347.71134,258.585915 C353.319588,245.181221 356.123711,232.244131 356.123711,219.774648 C356.123711,215.410329 355.344788,209.331455 353.786942,201.538028 C352.229095,193.744601 348.646048,185.951174 343.037801,178.157746 C337.429553,170.364319 329.484536,163.661972 319.202749,158.050704 C308.920962,152.439437 295.056128,149.633803 277.608247,149.633803 C260.160367,149.633803 245.983963,152.595305 235.079038,158.51831 C224.174112,164.441315 215.761741,171.143662 209.841924,178.625352 C203.922108,186.107042 199.560137,193.744601 196.756014,201.538028 C193.95189,209.331455 191.92669,215.098592 190.680412,218.839437 C187.564719,227.568075 182.735395,233.335211 176.19244,236.140845 C169.649485,238.946479 162.016037,240.349296 153.292096,240.349296 L38.3230241,240.349296 C32.7147766,240.349296 27.8854525,238.323005 23.8350515,234.270423 C19.7846506,230.21784 17.7594502,225.385915 17.7594502,219.774648 C18.3825888,193.588732 23.9908362,167.558685 34.5841924,141.684507 C45.1775487,115.810329 61.2233677,92.2741784 82.7216495,71.0760563 C104.219931,49.8779343 131.014891,32.7323944 163.106529,19.6394366 C195.198167,6.54647887 233.053837,0 276.67354,0 C317.800687,0 354.098511,6.07887324 385.56701,18.2366197 C417.03551,30.3943662 443.363116,46.6046948 464.549828,66.8676056 C485.736541,87.1305164 501.78236,110.510798 512.687285,137.008451 C523.592211,163.506103 529.044674,191.094836 529.044674,219.774648 Z" id="Path" style="mix-blend-mode: overlay;"></path>
        </g>
        <g id="PX-REM" transform="translate(181.610801, 155.000000)" fill="#FFFFFF" fill-rule="nonzero">
            <path d="M183.369733,0 C205.9564,0 223.503066,5.32 236.009733,15.96 C248.5164,26.6 254.769733,42.1866667 254.769733,62.72 C254.769733,83.2533333 248.5164,98.9333333 236.009733,109.76 C223.503066,120.586667 205.9564,126 183.369733,126 L138.569733,126 L138.569733,188.44 C138.569733,190.493333 137.823066,192.266667 136.329733,193.76 C134.8364,195.253333 133.063066,196 131.009733,196 L108.329733,196 C106.2764,196 104.503066,195.253333 103.009733,193.76 C101.5164,192.266667 100.769733,190.493333 100.769733,188.44 L100.769733,7.56 C100.769733,5.50666667 101.5164,3.73333333 103.009733,2.24 C104.503066,0.746666667 106.2764,0 108.329733,0 L183.369733,0 Z M138.569733,91 L181.969733,91 C192.609733,91 201.103066,88.9 207.449733,84.7 C213.7964,80.5 216.969733,73.1733333 216.969733,62.72 C216.969733,52.2666667 213.7964,45.0333333 207.449733,41.02 C201.103066,37.0066667 192.609733,35 181.969733,35 L138.569733,35 L138.569733,91 Z" id="Shape"></path>
            <path d="M379.309199,196 C375.575866,196 372.869199,195.066667 371.189199,193.2 C369.509199,191.333333 368.295866,189.933333 367.549199,189 L323.029199,127.12 L278.789199,189 C278.042533,189.933333 276.829199,191.333333 275.149199,193.2 C273.469199,195.066667 270.762533,196 267.029199,196 L243.509199,196 C241.455866,196 239.682533,195.253333 238.189199,193.76 C236.695866,192.266667 235.949199,190.493333 235.949199,188.44 C235.949199,187.506667 236.229199,186.48 236.789199,185.36 L300.909199,96.04 L239.589199,10.64 C239.029199,9.52 238.749199,8.49333333 238.749199,7.56 C238.749199,5.50666667 239.495866,3.73333333 240.989199,2.24 C242.482533,0.746666667 244.255866,0 246.309199,0 L269.829199,0 C273.562533,0 276.269199,0.933333333 277.949199,2.8 C279.629199,4.66666667 280.842533,6.06666667 281.589199,7 L323.869199,66.08 L365.869199,7 C366.615866,6.06666667 367.829199,4.66666667 369.509199,2.8 C371.189199,0.933333333 373.895866,0 377.629199,0 L401.149199,0 C403.202533,0 404.975866,0.746666667 406.469199,2.24 C407.962533,3.73333333 408.709199,5.50666667 408.709199,7.56 C408.709199,8.49333333 408.429199,9.52 407.869199,10.64 L345.989199,97.16 L409.549199,185.36 C410.109199,186.48 410.389199,187.506667 410.389199,188.44 C410.389199,190.493333 409.642533,192.266667 408.149199,193.76 C406.655866,195.253333 404.882533,196 402.829199,196 L379.309199,196 Z" id="Path"></path>
            <path d="M79.8,290 C103.133333,290 120.866667,295.413333 133,306.24 C145.133333,317.066667 151.2,332.093333 151.2,351.32 C151.2,364.946667 148.073333,376.566667 141.82,386.18 C135.566667,395.793333 126.373333,402.933333 114.24,407.6 L152.88,476.76 C153.44,477.88 153.72,478.906667 153.72,479.84 C153.72,481.52 153.113333,482.966667 151.9,484.18 C150.686667,485.393333 149.24,486 147.56,486 L123.76,486 C120.026667,486 117.273333,485.113333 115.5,483.34 C113.726667,481.566667 112.466667,479.933333 111.72,478.44 L75.04,413.2 L37.8,413.2 L37.8,478.44 C37.8,480.493333 37.0533333,482.266667 35.56,483.76 C34.0666667,485.253333 32.2933333,486 30.24,486 L7.56,486 C5.50666667,486 3.73333333,485.253333 2.24,483.76 C0.746666667,482.266667 0,480.493333 0,478.44 L0,297.56 C0,295.506667 0.746666667,293.733333 2.24,292.24 C3.73333333,290.746667 5.50666667,290 7.56,290 L79.8,290 Z M37.8,378.2 L78.4,378.2 C89.04,378.2 97.5333333,376.333333 103.88,372.6 C110.226667,368.866667 113.4,361.773333 113.4,351.32 C113.4,340.866667 110.226667,333.866667 103.88,330.32 C97.5333333,326.773333 89.04,325 78.4,325 L37.8,325 L37.8,378.2 Z" id="Shape"></path>
            <path d="M293.659466,451 C295.7128,451 297.486133,451.746667 298.979466,453.24 C300.4728,454.733333 301.219466,456.506667 301.219466,458.56 L301.219466,478.44 C301.219466,480.493333 300.4728,482.266667 298.979466,483.76 C297.486133,485.253333 295.7128,486 293.659466,486 L170.739466,486 C168.686133,486 166.9128,485.253333 165.419466,483.76 C163.926133,482.266667 163.179466,480.493333 163.179466,478.44 L163.179466,297.56 C163.179466,295.506667 163.926133,293.733333 165.419466,292.24 C166.9128,290.746667 168.686133,290 170.739466,290 L291.419466,290 C293.4728,290 295.246133,290.746667 296.739466,292.24 C298.2328,293.733333 298.979466,295.506667 298.979466,297.56 L298.979466,317.44 C298.979466,319.493333 298.2328,321.266667 296.739466,322.76 C295.246133,324.253333 293.4728,325 291.419466,325 L200.979466,325 L200.979466,369.52 L285.259466,369.52 C287.3128,369.52 289.086133,370.266667 290.579466,371.76 C292.0728,373.253333 292.819466,375.026667 292.819466,377.08 L292.819466,396.96 C292.819466,399.013333 292.0728,400.786667 290.579466,402.28 C289.086133,403.773333 287.3128,404.52 285.259466,404.52 L200.979466,404.52 L200.979466,451 L293.659466,451 Z" id="Path"></path>
            <path d="M403.358933,389.96 L456.558933,297.56 C457.305599,296.626667 458.565599,295.133333 460.338933,293.08 C462.112266,291.026667 464.865599,290 468.598933,290 L487.638933,290 C489.692266,290 491.465599,290.746667 492.958933,292.24 C494.452266,293.733333 495.198933,295.506667 495.198933,297.56 L495.198933,478.44 C495.198933,480.493333 494.452266,482.266667 492.958933,483.76 C491.465599,485.253333 489.692266,486 487.638933,486 L464.958933,486 C462.905599,486 461.132266,485.253333 459.638933,483.76 C458.145599,482.266667 457.398933,480.493333 457.398933,478.44 L457.398933,368.96 L420.998933,431.96 C420.065599,433.453333 418.758933,434.993333 417.078933,436.58 C415.398933,438.166667 413.252266,438.96 410.638933,438.96 L396.078933,438.96 C393.465599,438.96 391.318933,438.166667 389.638933,436.58 C387.958933,434.993333 386.652266,433.453333 385.718933,431.96 L349.318933,368.96 L349.318933,478.44 C349.318933,480.493333 348.572266,482.266667 347.078933,483.76 C345.585599,485.253333 343.812266,486 341.758933,486 L319.078933,486 C317.025599,486 315.252266,485.253333 313.758933,483.76 C312.265599,482.266667 311.518933,480.493333 311.518933,478.44 L311.518933,297.56 C311.518933,295.506667 312.265599,293.733333 313.758933,292.24 C315.252266,290.746667 317.025599,290 319.078933,290 L338.118933,290 C341.852266,290 344.605599,291.026667 346.378933,293.08 C348.152266,295.133333 349.412266,296.626667 350.158933,297.56 L403.358933,389.96 Z" id="Path"></path>
        </g>
    </g>
</svg>